<mxfile host="app.diagrams.net" modified="2023-04-18T01:13:34.200Z" agent="Mozilla/5.0 (Windows NT 10.0; Win64; x64) AppleWebKit/537.36 (KHTML, like Gecko) Chrome/112.0.0.0 Safari/537.36 Edg/112.0.1722.48" etag="awL9d41yzRTdC2UwClJZ" version="21.1.8" type="github">
  <diagram name="Página-1" id="8A-gIid98ODeogEsr4VN">
    <mxGraphModel dx="1377" dy="796" grid="1" gridSize="10" guides="1" tooltips="1" connect="1" arrows="1" fold="1" page="1" pageScale="1" pageWidth="827" pageHeight="1169" math="0" shadow="0">
      <root>
        <mxCell id="0" />
        <mxCell id="1" parent="0" />
        <mxCell id="XWONsPRAWwPBpnLWDOgD-1" value="Recepção" style="shape=umlActor;html=1;verticalLabelPosition=bottom;verticalAlign=top;align=center;" vertex="1" parent="1">
          <mxGeometry x="40" y="150" width="80" height="130" as="geometry" />
        </mxCell>
        <mxCell id="XWONsPRAWwPBpnLWDOgD-2" value="Manter cadastros de clientes" style="ellipse;whiteSpace=wrap;html=1;" vertex="1" parent="1">
          <mxGeometry x="200" y="70" width="140" height="70" as="geometry" />
        </mxCell>
        <mxCell id="XWONsPRAWwPBpnLWDOgD-3" value="Manter aluguel de quartos" style="ellipse;whiteSpace=wrap;html=1;" vertex="1" parent="1">
          <mxGeometry x="260" y="180" width="140" height="70" as="geometry" />
        </mxCell>
        <mxCell id="XWONsPRAWwPBpnLWDOgD-4" value="Manter reservas" style="ellipse;whiteSpace=wrap;html=1;" vertex="1" parent="1">
          <mxGeometry x="220" y="280" width="140" height="70" as="geometry" />
        </mxCell>
        <mxCell id="XWONsPRAWwPBpnLWDOgD-5" value="Manter reservas online" style="ellipse;whiteSpace=wrap;html=1;" vertex="1" parent="1">
          <mxGeometry x="414" y="280" width="140" height="70" as="geometry" />
        </mxCell>
        <mxCell id="XWONsPRAWwPBpnLWDOgD-6" value="" style="endArrow=none;html=1;rounded=0;entryX=0;entryY=0.5;entryDx=0;entryDy=0;" edge="1" parent="1" target="XWONsPRAWwPBpnLWDOgD-2">
          <mxGeometry width="50" height="50" relative="1" as="geometry">
            <mxPoint x="130" y="190" as="sourcePoint" />
            <mxPoint x="200" y="120" as="targetPoint" />
          </mxGeometry>
        </mxCell>
        <mxCell id="XWONsPRAWwPBpnLWDOgD-7" value="" style="endArrow=none;html=1;rounded=0;entryX=0;entryY=0.5;entryDx=0;entryDy=0;" edge="1" parent="1" target="XWONsPRAWwPBpnLWDOgD-3">
          <mxGeometry width="50" height="50" relative="1" as="geometry">
            <mxPoint x="130" y="220" as="sourcePoint" />
            <mxPoint x="210" y="115" as="targetPoint" />
          </mxGeometry>
        </mxCell>
        <mxCell id="XWONsPRAWwPBpnLWDOgD-8" value="" style="endArrow=none;html=1;rounded=0;entryX=0;entryY=0;entryDx=0;entryDy=0;" edge="1" parent="1" target="XWONsPRAWwPBpnLWDOgD-4">
          <mxGeometry width="50" height="50" relative="1" as="geometry">
            <mxPoint x="130" y="270" as="sourcePoint" />
            <mxPoint x="180" y="260" as="targetPoint" />
          </mxGeometry>
        </mxCell>
        <mxCell id="XWONsPRAWwPBpnLWDOgD-11" value="" style="endArrow=classic;html=1;rounded=0;exitX=1;exitY=0.5;exitDx=0;exitDy=0;dashed=1;entryX=0;entryY=0.5;entryDx=0;entryDy=0;" edge="1" parent="1" source="XWONsPRAWwPBpnLWDOgD-4" target="XWONsPRAWwPBpnLWDOgD-5">
          <mxGeometry width="50" height="50" relative="1" as="geometry">
            <mxPoint x="170" y="390" as="sourcePoint" />
            <mxPoint x="220" y="340" as="targetPoint" />
          </mxGeometry>
        </mxCell>
        <mxCell id="XWONsPRAWwPBpnLWDOgD-12" value="compra e venda de serviços/ produtos" style="ellipse;whiteSpace=wrap;html=1;" vertex="1" parent="1">
          <mxGeometry x="10" y="430" width="140" height="70" as="geometry" />
        </mxCell>
        <mxCell id="XWONsPRAWwPBpnLWDOgD-13" value="" style="endArrow=none;html=1;rounded=0;entryX=0;entryY=1;entryDx=0;entryDy=0;entryPerimeter=0;exitX=0.5;exitY=0;exitDx=0;exitDy=0;" edge="1" parent="1" source="XWONsPRAWwPBpnLWDOgD-12" target="XWONsPRAWwPBpnLWDOgD-1">
          <mxGeometry width="50" height="50" relative="1" as="geometry">
            <mxPoint x="120" y="400" as="sourcePoint" />
            <mxPoint x="50" y="290" as="targetPoint" />
          </mxGeometry>
        </mxCell>
        <mxCell id="XWONsPRAWwPBpnLWDOgD-14" value="Emitir recibos" style="ellipse;whiteSpace=wrap;html=1;" vertex="1" parent="1">
          <mxGeometry x="100" y="330" width="140" height="70" as="geometry" />
        </mxCell>
        <mxCell id="XWONsPRAWwPBpnLWDOgD-15" value="" style="endArrow=none;html=1;rounded=0;entryX=0;entryY=0;entryDx=0;entryDy=0;" edge="1" parent="1" target="XWONsPRAWwPBpnLWDOgD-14">
          <mxGeometry width="50" height="50" relative="1" as="geometry">
            <mxPoint x="120" y="280" as="sourcePoint" />
            <mxPoint x="230" y="500" as="targetPoint" />
          </mxGeometry>
        </mxCell>
        <mxCell id="XWONsPRAWwPBpnLWDOgD-17" value="Hóspede" style="shape=umlActor;html=1;verticalLabelPosition=bottom;verticalAlign=top;align=center;" vertex="1" parent="1">
          <mxGeometry x="680" y="640" width="80" height="130" as="geometry" />
        </mxCell>
        <mxCell id="XWONsPRAWwPBpnLWDOgD-18" value="Alugar quartos" style="ellipse;whiteSpace=wrap;html=1;" vertex="1" parent="1">
          <mxGeometry x="660" y="440" width="140" height="70" as="geometry" />
        </mxCell>
        <mxCell id="XWONsPRAWwPBpnLWDOgD-19" value="Pagar fatura" style="ellipse;whiteSpace=wrap;html=1;" vertex="1" parent="1">
          <mxGeometry x="500" y="500" width="140" height="70" as="geometry" />
        </mxCell>
        <mxCell id="XWONsPRAWwPBpnLWDOgD-20" value="" style="endArrow=none;html=1;rounded=0;entryX=0;entryY=1;entryDx=0;entryDy=0;entryPerimeter=0;" edge="1" parent="1">
          <mxGeometry width="50" height="50" relative="1" as="geometry">
            <mxPoint x="650" y="670" as="sourcePoint" />
            <mxPoint x="150" y="460" as="targetPoint" />
          </mxGeometry>
        </mxCell>
        <mxCell id="XWONsPRAWwPBpnLWDOgD-21" value="" style="endArrow=none;html=1;rounded=0;entryX=1;entryY=1;entryDx=0;entryDy=0;" edge="1" parent="1" source="XWONsPRAWwPBpnLWDOgD-17" target="XWONsPRAWwPBpnLWDOgD-19">
          <mxGeometry width="50" height="50" relative="1" as="geometry">
            <mxPoint x="600" y="630" as="sourcePoint" />
            <mxPoint x="650" y="580" as="targetPoint" />
          </mxGeometry>
        </mxCell>
        <mxCell id="XWONsPRAWwPBpnLWDOgD-22" value="" style="endArrow=none;html=1;rounded=0;entryX=0.5;entryY=1;entryDx=0;entryDy=0;" edge="1" parent="1" target="XWONsPRAWwPBpnLWDOgD-18">
          <mxGeometry width="50" height="50" relative="1" as="geometry">
            <mxPoint x="720" y="620" as="sourcePoint" />
            <mxPoint x="720" y="510" as="targetPoint" />
          </mxGeometry>
        </mxCell>
        <mxCell id="XWONsPRAWwPBpnLWDOgD-23" value="" style="endArrow=classic;html=1;rounded=0;exitX=0.5;exitY=0;exitDx=0;exitDy=0;dashed=1;entryX=0.5;entryY=1;entryDx=0;entryDy=0;" edge="1" parent="1" source="XWONsPRAWwPBpnLWDOgD-19" target="XWONsPRAWwPBpnLWDOgD-24">
          <mxGeometry width="50" height="50" relative="1" as="geometry">
            <mxPoint x="550" y="490" as="sourcePoint" />
            <mxPoint x="640" y="400" as="targetPoint" />
          </mxGeometry>
        </mxCell>
        <mxCell id="XWONsPRAWwPBpnLWDOgD-24" value="Pagar consumo e serviços extras" style="ellipse;whiteSpace=wrap;html=1;" vertex="1" parent="1">
          <mxGeometry x="500" y="380" width="140" height="70" as="geometry" />
        </mxCell>
      </root>
    </mxGraphModel>
  </diagram>
</mxfile>
